<?xml version="1.0" standalone="no"?>
<!DOCTYPE svg PUBLIC "-//W3C//DTD SVG 20010904//EN"
 "http://www.w3.org/TR/2001/REC-SVG-20010904/DTD/svg10.dtd">
<svg version="1.0" xmlns="http://www.w3.org/2000/svg"
 width="100.000000pt" height="100.000000pt" viewBox="0 0 100.000000 100.000000"
 preserveAspectRatio="xMidYMid meet">

<g transform="translate(0.000000,100.000000) scale(0.100000,-0.100000)"
fill="#000000" stroke="none">
<path d="M386 985 c-3 -8 -8 -38 -12 -65 -6 -46 -10 -52 -42 -66 -34 -14 -36
-13 -86 21 -28 19 -56 35 -62 35 -11 0 -94 -84 -94 -95 0 -3 16 -29 35 -58 35
-52 35 -54 21 -89 -14 -32 -20 -36 -66 -42 -81 -11 -80 -10 -80 -86 0 -76 -3
-74 83 -86 43 -6 49 -10 63 -42 14 -35 14 -37 -21 -87 -19 -28 -35 -56 -35
-62 0 -10 84 -93 95 -93 3 0 29 16 58 35 52 35 54 35 89 21 32 -14 36 -20 42
-66 11 -80 11 -80 81 -80 l64 0 3 -37 3 -38 235 0 235 0 3 189 c3 235 8 226
-125 226 -71 0 -94 3 -91 12 3 7 24 16 49 21 97 17 89 10 89 86 0 77 1 76 -81
87 -47 6 -53 10 -66 42 -14 33 -13 36 21 88 20 30 36 56 36 59 0 11 -83 95
-93 95 -6 0 -34 -16 -62 -36 -51 -35 -53 -35 -87 -21 -32 13 -36 20 -42 63
-12 87 -10 84 -86 84 -51 0 -69 -4 -74 -15z m113 -305 c47 -13 89 -56 102
-102 37 -139 -129 -241 -237 -146 -97 85 -40 246 91 257 6 1 26 -3 44 -9z
m456 -310 c4 -7 -63 -10 -195 -10 -132 0 -199 3 -195 10 8 13 382 13 390 0z
m5 -190 l0 -140 -200 0 -200 0 0 140 0 140 200 0 200 0 0 -140z"/>
<path d="M698 263 c-37 -36 -37 -37 -58 -18 -19 17 -22 17 -36 3 -14 -14 -12
-18 21 -43 l36 -28 50 49 c27 26 48 53 46 58 -7 21 -24 15 -59 -21z"/>
<path d="M698 163 c-37 -36 -37 -37 -58 -18 -19 17 -22 17 -36 3 -14 -14 -12
-18 21 -43 l36 -28 50 49 c27 26 48 53 46 58 -7 21 -24 15 -59 -21z"/>
</g>
</svg>
